<svg id="Layer_1" data-name="Layer 1" xmlns="http://www.w3.org/2000/svg" viewBox="0 0 550.04 181.6"><defs><style>.cls-1{fill:#4c1a00;}.cls-2{fill:#ee7100;}.cls-3{fill:#ae071f;}.cls-4{fill:#d60022;}.cls-5{fill:#e6262f;}.cls-6{fill:#e73928;}.cls-7{fill:#ea5602;}</style></defs><title>rurant_logo</title><path class="cls-1" d="M312.94,300.77q0,16.34-12.93,21.1l17.2,24.31H298.55L283.48,324.5H273v21.68H257.81v-68h25.76q15.85,0,22.61,5.34T312.94,300.77Zm-18.28,8.07c1.88-1.68,2.82-4.36,2.82-8s-1-6.17-2.92-7.53-5.35-2.05-10.21-2.05H273v20.13h11.08Q291.85,311.37,294.66,308.84Z" transform="translate(-122.04 -206.08)"/><path class="cls-1" d="M346.48,328.63a12.43,12.43,0,0,0,10.21,4.71,12.29,12.29,0,0,0,10.16-4.71q3.73-4.72,3.74-12.88V278.22h15.17v38q0,14.77-8.17,22.7t-20.9,7.93q-12.74,0-21-8t-8.21-22.65v-38h15.17v37.53Q342.69,323.91,346.48,328.63Z" transform="translate(-122.04 -206.08)"/><path class="cls-1" d="M456.63,300.77q0,16.34-12.93,21.1l17.21,24.31H442.24L427.17,324.5h-10.5v21.68H401.51v-68h25.76q15.86,0,22.61,5.34T456.63,300.77Zm-18.27,8.07c1.87-1.68,2.82-4.36,2.82-8s-1-6.17-2.92-7.53-5.35-2.05-10.21-2.05H416.67v20.13h11.09Q435.53,311.37,438.36,308.84Z" transform="translate(-122.04 -206.08)"/><path class="cls-1" d="M520.61,346.18l-6.32-14.68H485.8l-6.32,14.68H463.34l29.36-68h14.68l29.37,68Zm-20.52-47.74-8.55,19.74h17Z" transform="translate(-122.04 -206.08)"/><path class="cls-1" d="M592.17,278.22h15.16v68H592.17l-32.38-42.59v42.59H544.62v-68h14.2L592.17,322Z" transform="translate(-122.04 -206.08)"/><path class="cls-1" d="M652.83,291.34v54.84H637.67V291.34H618.42V278.22h53.66v13.12Z" transform="translate(-122.04 -206.08)"/><path class="cls-1" d="M257.73,368.62h2.78l3.32,9.24c.27.75.43,1.86.46,1.86h0s.22-1.11.49-1.86l3.32-9.24h2.75l-5,13.66h-3Z" transform="translate(-122.04 -206.08)"/><path class="cls-1" d="M283.7,368.3c3.86,0,5.91,2.86,5.91,6.4,0,.35-.08,1.13-.08,1.13h-10a4.47,4.47,0,0,0,4.7,4.51,6.52,6.52,0,0,0,4.05-1.59l1.08,1.91a8.13,8.13,0,0,1-5.29,1.95,7,7,0,0,1-7.24-7.16C276.87,371.11,279.81,368.3,283.7,368.3Zm3.24,5.56c-.08-2.35-1.54-3.48-3.29-3.48a3.92,3.92,0,0,0-4,3.48Z" transform="translate(-122.04 -206.08)"/><path class="cls-1" d="M297.47,368.62H300V371c0,.57-.05,1-.05,1H300a4.67,4.67,0,0,1,4.32-3.57,4.11,4.11,0,0,1,.67.06v2.59a3.78,3.78,0,0,0-.75-.08,4.14,4.14,0,0,0-3.84,3.21,8.39,8.39,0,0,0-.32,2.46v5.58h-2.62Z" transform="translate(-122.04 -206.08)"/><path class="cls-1" d="M312.43,378.75a5.87,5.87,0,0,0,3.91,1.59c1.14,0,2.27-.59,2.27-1.7,0-2.51-7-2-7-6.45,0-2.49,2.22-3.89,4.94-3.89a6.13,6.13,0,0,1,4.4,1.51l-1.05,2a5,5,0,0,0-3.38-1.21c-1.13,0-2.24.48-2.24,1.67,0,2.46,7,1.92,7,6.4,0,2.27-1.94,4-4.94,4a7.35,7.35,0,0,1-5.18-2Z" transform="translate(-122.04 -206.08)"/><path class="cls-1" d="M329.6,370.92h-1.78v-2.11h1.86v-3.94h2.54v3.94h3.29v2.11h-3.29V377c0,2.73,1.92,3.08,2.91,3.08a2.81,2.81,0,0,0,.62-.06v2.33a7.51,7.51,0,0,1-.91.05c-1.76,0-5.24-.54-5.24-5.1Z" transform="translate(-122.04 -206.08)"/><path class="cls-1" d="M349.26,368.3c3.86,0,5.91,2.86,5.91,6.4,0,.35-.08,1.13-.08,1.13h-10a4.45,4.45,0,0,0,4.69,4.51,6.52,6.52,0,0,0,4.05-1.59l1.08,1.91a8.1,8.1,0,0,1-5.29,1.95,7,7,0,0,1-7.23-7.16C342.43,371.11,345.37,368.3,349.26,368.3Zm3.24,5.56c-.09-2.35-1.54-3.48-3.3-3.48a3.91,3.91,0,0,0-4,3.48Z" transform="translate(-122.04 -206.08)"/><path class="cls-1" d="M363,368.62h2.53V371c0,.57-.05,1-.05,1h.05a4.69,4.69,0,0,1,4.32-3.57,4.32,4.32,0,0,1,.68.06v2.59a3.82,3.82,0,0,0-.76-.08,4.13,4.13,0,0,0-3.83,3.21,8.39,8.39,0,0,0-.32,2.46v5.58H363Z" transform="translate(-122.04 -206.08)"/><path class="cls-1" d="M377.82,363.23h2.62v10.41h1.92l3.72-5h3l-4.53,6v.06l5,7.58h-3.05l-4.1-6.42h-2v6.42h-2.62Z" transform="translate(-122.04 -206.08)"/><path class="cls-1" d="M397.26,370.92h-1.78v-2.11h1.86v-3.94h2.54v3.94h3.29v2.11h-3.29V377c0,2.73,1.92,3.08,2.91,3.08a3,3,0,0,0,.63-.06v2.33a7.8,7.8,0,0,1-.92.05c-1.76,0-5.24-.54-5.24-5.1Z" transform="translate(-122.04 -206.08)"/><path class="cls-1" d="M422.64,363.23h2.62v7c0,.64-.05,1.13-.05,1.13h.05a5.51,5.51,0,0,1,5.05-3.05c3.21,0,4.69,1.75,4.69,5.24v8.74h-2.61v-8.15c0-1.92-.41-3.43-2.6-3.43a4.51,4.51,0,0,0-4.31,3.38,6.09,6.09,0,0,0-.22,1.8v6.4h-2.62Z" transform="translate(-122.04 -206.08)"/><path class="cls-1" d="M449.48,368.3c3.86,0,5.91,2.86,5.91,6.4,0,.35-.08,1.13-.08,1.13h-10a4.46,4.46,0,0,0,4.69,4.51,6.52,6.52,0,0,0,4-1.59l1.08,1.91a8.1,8.1,0,0,1-5.29,1.95,7,7,0,0,1-7.23-7.16C442.65,371.11,445.59,368.3,449.48,368.3Zm3.24,5.56c-.08-2.35-1.54-3.48-3.3-3.48a3.91,3.91,0,0,0-4,3.48Z" transform="translate(-122.04 -206.08)"/><path class="cls-1" d="M463.82,370.92H462v-2.11h1.87v-3.94h2.53v3.94h3.3v2.11h-3.3V377c0,2.73,1.92,3.08,2.92,3.08A2.81,2.81,0,0,0,470,380v2.33a7.8,7.8,0,0,1-.92.05c-1.75,0-5.23-.54-5.23-5.1Z" transform="translate(-122.04 -206.08)"/><path class="cls-1" d="M489.2,368.62h2.4v1.17a8.6,8.6,0,0,1-.06,1h.06a5,5,0,0,1,4.59-2.48c3.67,0,6,2.92,6,7.15s-2.62,7.16-6.18,7.16a4.76,4.76,0,0,1-4.19-2.24h-.05s.05.48.05,1.18v6.13H489.2Zm6.39,11.75c2.16,0,3.94-1.79,3.94-4.89s-1.59-4.89-3.86-4.89c-2.05,0-3.94,1.44-3.94,4.92C491.73,377.94,493.08,380.37,495.59,380.37Z" transform="translate(-122.04 -206.08)"/><path class="cls-1" d="M509.91,363.23h2.61V378.1c0,1.65.65,1.94,1.46,1.94a3.85,3.85,0,0,0,.46,0v2.33a7.79,7.79,0,0,1-.86.05c-1.49,0-3.67-.4-3.67-3.83Z" transform="translate(-122.04 -206.08)"/><path class="cls-1" d="M529,373.75h.59v-.24c0-2.24-1.27-3-3-3a6.91,6.91,0,0,0-3.81,1.33l-1.08-1.92a8.56,8.56,0,0,1,5.1-1.62c3.46,0,5.4,1.89,5.4,5.34v8.64H529.8V381a9.26,9.26,0,0,1,.06-1.08h-.06a4.71,4.71,0,0,1-4.37,2.7c-2.35,0-4.64-1.43-4.64-4.16C520.79,373.94,526.72,373.75,529,373.75Zm-3,6.75c2.21,0,3.64-2.32,3.64-4.34v-.44H529c-2,0-5.54.14-5.54,2.59A2.29,2.29,0,0,0,526,380.5Z" transform="translate(-122.04 -206.08)"/><path class="cls-1" d="M541.31,370.92h-1.79v-2.11h1.87v-3.94h2.53v3.94h3.3v2.11h-3.3V377c0,2.73,1.92,3.08,2.92,3.08a2.81,2.81,0,0,0,.62-.06v2.33a7.8,7.8,0,0,1-.92.05c-1.75,0-5.23-.54-5.23-5.1Z" transform="translate(-122.04 -206.08)"/><path class="cls-1" d="M555.64,370.92h-1.78v-2.11h1.86v-3.94h2.54v3.94h3.29v2.11h-3.29V377c0,2.73,1.92,3.08,2.92,3.08a2.93,2.93,0,0,0,.62-.06v2.33a7.8,7.8,0,0,1-.92.05c-1.76,0-5.24-.54-5.24-5.1Z" transform="translate(-122.04 -206.08)"/><path class="cls-1" d="M575.3,368.3c3.86,0,5.91,2.86,5.91,6.4,0,.35-.08,1.13-.08,1.13h-10a4.45,4.45,0,0,0,4.69,4.51,6.52,6.52,0,0,0,4-1.59l1.08,1.91a8.1,8.1,0,0,1-5.29,1.95,7,7,0,0,1-7.23-7.16C568.47,371.11,571.41,368.3,575.3,368.3Zm3.24,5.56c-.08-2.35-1.54-3.48-3.3-3.48a3.91,3.91,0,0,0-4,3.48Z" transform="translate(-122.04 -206.08)"/><path class="cls-1" d="M588.91,363.23h2.61V378.1c0,1.65.65,1.94,1.46,1.94a3.85,3.85,0,0,0,.46,0v2.33a7.79,7.79,0,0,1-.86.05c-1.49,0-3.67-.4-3.67-3.83Z" transform="translate(-122.04 -206.08)"/><path class="cls-1" d="M608,373.75h.59v-.24c0-2.24-1.26-3-3-3a6.91,6.91,0,0,0-3.81,1.33l-1.08-1.92a8.56,8.56,0,0,1,5.1-1.62c3.46,0,5.4,1.89,5.4,5.34v8.64H608.8V381a9.26,9.26,0,0,1,.06-1.08h-.06a4.71,4.71,0,0,1-4.37,2.7c-2.35,0-4.64-1.43-4.64-4.16C599.79,373.94,605.73,373.75,608,373.75Zm-3,6.75c2.21,0,3.64-2.32,3.64-4.34v-.44H608c-2,0-5.54.14-5.54,2.59A2.29,2.29,0,0,0,605,380.5Z" transform="translate(-122.04 -206.08)"/><path class="cls-1" d="M619.82,368.62h2.54v1.81a8.67,8.67,0,0,1-.06,1h.06a5.56,5.56,0,0,1,5.13-3.13c3.21,0,4.69,1.75,4.69,5.24v8.74h-2.61v-8.15c0-1.92-.41-3.43-2.6-3.43a4.47,4.47,0,0,0-4.31,3.35,6.17,6.17,0,0,0-.22,1.83v6.4h-2.62Z" transform="translate(-122.04 -206.08)"/><path class="cls-1" d="M646.06,368.3a4.54,4.54,0,0,1,4.21,2.16h.06a7.08,7.08,0,0,1-.06-.92v-6.31h2.62v19h-2.48V381c0-.54,0-.92,0-.92h-.06a4.77,4.77,0,0,1-4.48,2.54c-3.7,0-6-2.92-6-7.16S642.45,368.3,646.06,368.3Zm.36,12c2,0,3.94-1.43,3.94-4.91,0-2.43-1.27-4.86-3.86-4.86-2.16,0-4,1.78-4,4.88S644.15,380.34,646.42,380.34Z" transform="translate(-122.04 -206.08)"/><polygon class="cls-2" points="99.55 124.14 94.79 105.45 89.15 109.25 99.55 124.14"/><polygon class="cls-3" points="0 0 14.21 20.35 30.79 0 0 0"/><polygon class="cls-4" points="14.21 20.35 19.07 27.32 49.1 27.32 48.19 0 30.79 0 14.21 20.35"/><polygon class="cls-4" points="59.74 46.29 49.73 46.29 49.96 53.11 54.5 59.62 70.77 50.25 59.74 46.29"/><path class="cls-5" d="M208.72,233.4a9.45,9.45,0,0,1,9.37,8.36l24.18-13.93a36.83,36.83,0,0,0-33.55-21.75H170.23l.91,27.32Z" transform="translate(-122.04 -206.08)"/><polygon class="cls-5" points="70.77 50.25 77.65 46.29 59.74 46.29 70.77 50.25"/><path class="cls-6" d="M218.2,242.88a9.5,9.5,0,0,1-9.48,9.49h-9l-6.88,4,39.94,14.36a36.6,36.6,0,0,0,9.52-42.86l-24.18,13.93A8.33,8.33,0,0,1,218.2,242.88Z" transform="translate(-122.04 -206.08)"/><polygon class="cls-3" points="45.19 46.29 49.96 53.11 49.73 46.29 45.19 46.29"/><path class="cls-7" d="M176.54,265.7l34.65,49.63,5.64-3.8-8.11-31.85a36.57,36.57,0,0,0,24-9l-39.94-14.36Z" transform="translate(-122.04 -206.08)"/></svg>